<svg width="58" height="41" viewBox="0 0 58 41" fill="none" xmlns="http://www.w3.org/2000/svg">
<path d="M36.6369 36.19C33.9564 34.5564 31.4829 31.9521 29.5925 28.797C27.8056 25.8286 26.5641 22.3655 26.1032 18.8091H30.8998C30.8904 19.0051 30.8904 19.2011 30.8904 19.3972C30.8904 23.0563 31.9344 27.3595 33.7777 31.1587C34.6994 33.0536 35.828 34.8271 37.1353 36.3113C37.2388 36.4233 37.3423 36.5353 37.4457 36.6474C37.173 36.498 36.9002 36.3486 36.6369 36.19Z" fill="#8FE2FF"/>
<path d="M38.3862 35.1352C36.6087 33.1283 35.1415 30.44 34.1351 27.6303C33.1288 24.8206 32.5833 21.8802 32.5833 19.3879C32.5833 19.1825 32.6021 18.9958 32.6115 18.7998H37.6244C37.1636 20.9187 36.9567 22.935 36.9567 24.8486C36.9567 29.2545 38.0758 33.1003 39.7405 36.4794C39.2703 36.078 38.8188 35.63 38.3862 35.1352Z" fill="#8FE2FF"/>
<path d="M18.8614 18.7998H24.3821C25.0029 24.0645 27.2507 29.0585 30.3543 32.867C31.6052 34.3978 32.9971 35.742 34.4925 36.8248C31.1632 35.686 28.3134 33.8284 25.9716 31.5414C22.2942 27.957 19.8771 23.2991 18.8614 18.7998Z" fill="#8FE2FF"/>
<path d="M15.3439 16.6715C15.2404 16.0367 15.184 15.3927 15.184 14.7299C15.184 14.3378 15.2028 13.9458 15.2404 13.5537L15.2687 13.1897L14.9019 13.2177C13.9237 13.3017 13.0867 13.5351 12.3813 13.8711L12.513 14.1512L12.3813 13.8711C11.4972 14.2818 10.8107 14.8326 10.2746 15.402C9.89838 15.794 9.60682 16.1954 9.3811 16.5501L9.08014 17.0262H15.4097L15.3439 16.6715Z" fill="#FC5959"/>
<path d="M16.275 20.6573C16.0587 19.9385 15.8706 19.2198 15.7201 18.501L15.6637 18.2583H11.1869L11.5913 18.7624C12.0804 19.3691 12.7951 20.0412 13.8203 20.5079C14.4222 20.7786 15.1276 20.9746 15.9552 21.0493L16.4161 21.0866L16.275 20.6573Z" fill="#FC5959"/>
<path d="M19.4821 10.0065C20.2063 10.2679 20.9305 10.3985 21.6265 10.3985C22.7268 10.3985 23.7802 10.0718 24.7113 9.48376C25.1439 9.21305 25.2756 8.64365 25.0028 8.20493C24.7301 7.77554 24.1564 7.64485 23.7144 7.91556C23.0372 8.33561 22.36 8.54097 21.6265 8.54097C21.1562 8.54097 20.6577 8.45696 20.1122 8.26093C19.6232 8.08358 19.0965 8.33561 18.9178 8.821C18.7485 9.3064 18.993 9.83847 19.4821 10.0065Z" fill="#12305B"/>
<path d="M54.4876 23.355C54.4594 23.2057 54.3183 23.1123 54.1679 23.1403L49.7569 23.9524L50.641 20.536L50.34 20.4333L48.7506 24.1391L47.4715 24.3725C47.368 24.3911 47.274 24.4472 47.2081 24.5312L47.1987 24.5405L44.9885 27.2288H38.7248C38.5931 26.2114 38.5273 25.1659 38.5273 24.0831C38.5273 21.8615 38.8188 19.4905 39.4772 16.9422C39.7499 15.8687 39.7688 14.8419 39.8722 13.8805C39.9192 13.4231 39.9474 12.9657 39.9474 12.5083C39.9474 9.01716 38.5367 5.88076 36.2136 3.63114C33.9 1.37218 30.6835 0 27.0908 0C23.2441 0 19.9994 1.72689 17.7798 4.31256C16.2186 6.12346 15.1464 8.34508 14.6385 10.7067C13.2372 10.7627 12.0333 11.0894 11.0364 11.5748C9.3811 12.3776 8.29012 13.5818 7.62236 14.5712C6.9546 15.5607 6.68186 16.3448 6.66305 16.4008L6.25863 17.6143H9.0143C9.25883 18.0623 9.67266 18.7064 10.3216 19.3692C10.8859 19.9479 11.6383 20.5266 12.5882 20.956C13.5381 21.3854 14.6949 21.6748 16.0399 21.6748C16.764 23.5697 17.7045 25.4366 18.8614 27.2195H1.42444C0.916573 27.2195 0.493347 27.6302 0.493347 28.1436C0.493347 28.6477 0.907168 29.0678 1.42444 29.0678H20.1687C21.1092 30.2999 22.1531 31.4667 23.3005 32.5589C27.9654 36.9741 34.4079 40.0172 42.3269 40.0172C42.6655 40.0172 42.9853 39.8305 43.1452 39.5318C43.305 39.2331 43.2956 38.869 43.1075 38.589C41.2641 35.7419 39.7782 32.6149 39.0446 29.0678H52.3433C52.8511 29.0678 53.2744 28.657 53.2744 28.1436C53.2744 27.6396 52.8605 27.2195 52.3433 27.2195H46.2488L47.8571 25.2686L54.2901 23.6724C54.4218 23.6257 54.5158 23.495 54.4876 23.355ZM9.06133 15.7567C9.27765 15.4113 9.5598 15.0286 9.91719 14.6552C10.4345 14.1138 11.0928 13.5818 11.9393 13.1897C12.6164 12.8723 13.4065 12.6483 14.3564 12.5643C14.3187 12.9657 14.2999 13.3671 14.2999 13.7684C14.2999 14.4405 14.3564 15.1033 14.4598 15.7567H9.06133ZM13.3782 19.2665C12.4095 18.8278 11.7324 18.1837 11.2621 17.6049H14.8454C15.0053 18.333 15.184 19.0518 15.4097 19.7799C14.6103 19.7145 13.9425 19.5279 13.3782 19.2665ZM16.3502 15.7567C16.228 15.1126 16.1621 14.4499 16.1621 13.7684C16.1621 10.7347 17.2719 7.729 19.1905 5.50738C21.1186 3.28576 23.8084 1.84824 27.0814 1.8389C30.185 1.8389 32.9313 3.02439 34.9064 4.93797C36.8814 6.86089 38.0758 9.50256 38.0758 12.4896C38.0758 12.8723 38.057 13.2644 38.01 13.6658C37.9348 14.4312 37.8972 15.1313 37.8031 15.766H16.623V15.7567H16.3502ZM24.589 31.196C20.5355 27.3689 17.8644 22.4122 16.7546 17.6143H22.8397C23.5263 23.2243 25.9904 28.5357 29.4138 32.5962C30.7964 34.2298 32.3294 35.6579 33.9753 36.8154C30.3073 35.6113 27.166 33.6323 24.589 31.196ZM36.3171 36.1433C33.3639 34.4071 30.6365 31.6254 28.558 28.265C26.5923 25.1006 25.2192 21.4134 24.7207 17.6236H30.0063C29.9969 17.829 29.9969 18.0437 29.9969 18.249C29.9969 22.1415 31.1443 26.7341 33.1664 30.776C34.1822 32.8016 35.4236 34.6778 36.872 36.2647C36.9849 36.386 37.0977 36.5074 37.2106 36.6194C36.9096 36.4794 36.6181 36.3207 36.3171 36.1433ZM38.2451 35.0325C36.2795 32.8949 34.6712 30.0292 33.5614 27.0328C32.4516 24.0364 31.8497 20.9094 31.8497 18.2584C31.8497 18.0437 31.8685 17.8383 31.8779 17.6329H37.3987C36.8908 19.8919 36.6651 22.0388 36.6651 24.0738C36.6651 28.769 37.8971 32.8669 39.7405 36.47C39.2233 36.0313 38.7248 35.5553 38.2451 35.0325Z" fill="#12305B"/>
<path d="M54.8356 24.9045C53.4343 25.2592 52.6537 24.6711 52.4185 23.7657C52.1928 22.8602 52.6066 21.9828 54.008 21.6374C55.4093 21.292 57.5067 22.5148 57.5067 22.5148C57.5067 22.5148 56.2464 24.5591 54.8356 24.9045Z" fill="#83CC1B"/>
<path d="M52.2587 20.6012C51.6849 21.8147 50.8009 22.0388 50.0108 21.6654C49.2208 21.3013 48.8164 20.4799 49.3901 19.2664C49.9638 18.0529 52.08 17.2688 52.08 17.2688C52.08 17.2688 52.8324 19.3877 52.2587 20.6012Z" fill="#83CC1B"/>
</svg>
